<?xml version="1.0" encoding="utf-8"?>
<!-- Generator: Adobe Illustrator 25.3.1, SVG Export Plug-In . SVG Version: 6.00 Build 0)  -->
<svg version="1.1" id="logo-77" xmlns="http://www.w3.org/2000/svg" xmlns:xlink="http://www.w3.org/1999/xlink" x="0px" y="0px"
	 viewBox="0 0 105 40" style="enable-background:new 0 0 105 40;" xml:space="preserve">
<style type="text/css">
	.st0{fill:none;}
	.st1{fill-rule:evenodd;clip-rule:evenodd;fill:#2D3D44;}
	.st2{fill:#2D3D44;}
	.st3{font-family:'Arial-Black';}
	.st4{font-size:10px;}
	.st5{font-size:9px;}
</style>
<path class="st0" d="M100.9,23.2c0-0.5,0.4-0.8,0.8-0.8h1.7c0.5,0,0.8,0.4,0.8,0.8c0,0.5-0.4,0.8-0.8,0.8h-1.7
	C101.2,24,100.9,23.6,100.9,23.2z"/>
<path class="st1" d="M20.5,0c11,0,20,9,20,20s-9,20-20,20s-20-9-20-20S9.5,0,20.5,0z M19.8,1.5c-2.3,0.3-4.5,2.2-6.1,5.2
	c-0.5,0.9-0.9,1.9-1.3,2.9c2.3-0.6,4.8-0.9,7.5-1V1.5z M10.7,10.1c0.5-1.5,1.1-2.9,1.7-4.1c0.8-1.5,1.8-2.8,2.9-3.8
	C9.3,3.9,4.5,8.7,2.7,14.8c1-1.1,2.3-2.1,3.8-2.9C7.8,11.2,9.2,10.6,10.7,10.1z M10.2,11.8c-0.6,2.3-0.9,4.8-1,7.5H2
	c0.3-2.3,2.2-4.5,5.2-6.1C8.1,12.6,9.1,12.2,10.2,11.8z M10.6,19.3c0.1-2.9,0.5-5.6,1.2-8c2.4-0.7,5.1-1.1,8-1.2v3.1
	c-1.1,2.8-3.3,5-6,6H10.6z M9.2,20.7H2c0.3,2.3,2.2,4.5,5.2,6.1c0.9,0.5,1.9,0.9,2.9,1.3C9.6,25.9,9.3,23.4,9.2,20.7z M11.8,28.7
	c-0.7-2.4-1.1-5.1-1.2-8h3.1c2.8,1.1,5,3.3,6,6v3.1C16.9,29.8,14.2,29.4,11.8,28.7z M10.7,29.9c-1.5-0.5-2.9-1.1-4.1-1.7
	c-1.5-0.8-2.8-1.8-3.8-2.9c1.8,6.1,6.6,10.9,12.6,12.6c-1.1-1-2.1-2.3-2.9-3.8C11.7,32.8,11.1,31.4,10.7,29.9z M19.8,38.5
	c-2.3-0.3-4.5-2.2-6.1-5.2c-0.5-0.9-0.9-1.9-1.3-2.9c2.3,0.6,4.8,0.9,7.5,1V38.5z M25.7,37.8c1.1-1,2.1-2.3,2.9-3.8
	c0.7-1.2,1.3-2.6,1.7-4.1c1.5-0.5,2.9-1.1,4.1-1.7c1.5-0.8,2.8-1.8,3.8-2.9C36.6,31.3,31.8,36.1,25.7,37.8z M28.7,30.3
	c-0.4,1.1-0.8,2-1.3,2.9c-1.7,3.1-3.9,4.9-6.1,5.2v-7.2C23.9,31.3,26.4,30.9,28.7,30.3z M30.9,28.2c1.1-0.4,2-0.8,2.9-1.3
	c3.1-1.7,4.9-3.9,5.2-6.1h-7.2C31.8,23.4,31.4,25.9,30.9,28.2z M30.4,20.7c-0.1,2.9-0.5,5.6-1.2,8c-2.4,0.7-5.1,1.1-8,1.2v-3.1
	c1.1-2.8,3.3-5,6-6H30.4z M31.8,19.3H39c-0.3-2.3-2.2-4.5-5.2-6.1c-0.9-0.5-1.9-0.9-2.9-1.3C31.4,14.1,31.8,16.6,31.8,19.3z
	 M29.2,11.3c0.7,2.4,1.1,5.1,1.2,8h-3.1c-2.8-1.1-5-3.3-6-6v-3.1C24.1,10.2,26.8,10.6,29.2,11.3z M30.4,10.1
	c1.5,0.5,2.9,1.1,4.1,1.7c1.5,0.8,2.8,1.8,3.8,2.9C36.6,8.7,31.8,3.9,25.7,2.2c1.1,1,2.1,2.3,2.9,3.8C29.3,7.2,29.9,8.6,30.4,10.1z
	 M21.2,1.5c2.3,0.3,4.5,2.2,6.1,5.2c0.5,0.9,0.9,1.9,1.3,2.9c-2.3-0.6-4.8-0.9-7.5-1V1.5z"/>
<text transform="matrix(1 0 0 1 42.8074 19.2769)"><tspan x="0" y="0" class="st2 st3 st4">Adventure</tspan><tspan x="0" y="10.8" class="st2 st3 st5">Trails Hikes</tspan></text>
<rect x="57" y="9.6" class="st0" width="30.5" height="25.5"/>
</svg>
